<?xml version="1.0" standalone="no"?>
<!DOCTYPE svg PUBLIC "-//W3C//DTD SVG 20010904//EN"
 "http://www.w3.org/TR/2001/REC-SVG-20010904/DTD/svg10.dtd">
<svg version="1.0" xmlns="http://www.w3.org/2000/svg"
 width="123.000000pt" height="123.000000pt" viewBox="0 0 123.000000 123.000000"
 preserveAspectRatio="xMidYMid meet">
<metadata>
Created by potrace 1.11, written by Peter Selinger 2001-2013
</metadata>
<g transform="translate(0.000000,123.000000) scale(0.100000,-0.100000)"
fill="#000000" stroke="none">
<path d="M515 1220 c-53 -11 -108 -43 -151 -88 -44 -45 -85 -120 -88 -159 0
-13 -5 -23 -11 -23 -5 0 -3 -5 5 -10 11 -7 12 -10 2 -10 -11 0 -13 -23 -11
-105 2 -58 6 -105 9 -105 3 0 5 -12 4 -27 -1 -16 1 -32 5 -38 3 -5 7 -19 8
-30 2 -11 9 -45 15 -75 7 -30 12 -61 11 -67 0 -7 2 -13 6 -13 4 0 8 -11 9 -23
1 -13 8 -37 17 -53 8 -16 15 -35 15 -41 0 -7 5 -13 12 -13 6 0 9 -3 5 -6 -10
-10 55 -106 103 -154 51 -50 98 -90 105 -90 3 0 23 -11 45 -25 22 -14 40 -23
40 -21 0 3 19 -3 42 -14 23 -10 46 -16 50 -14 4 3 8 1 8 -4 0 -5 10 -9 22 -8
31 1 36 33 6 45 -34 14 -62 24 -68 25 -3 1 -35 15 -70 33 -104 52 -235 191
-254 273 -1 3 -7 14 -12 25 -6 11 -15 34 -19 50 -5 17 -9 32 -10 35 -7 21 -19
86 -17 93 1 4 -1 7 -5 7 -5 0 -8 10 -9 23 0 12 -4 40 -8 62 -13 68 -16 253 -5
282 6 16 12 36 14 46 9 44 76 117 135 148 47 25 140 30 165 9 8 -7 15 -9 15
-6 0 12 63 -35 91 -67 15 -16 32 -48 39 -71 17 -53 22 -306 6 -306 -6 0 -5 -4
3 -9 8 -5 9 -11 3 -15 -6 -3 -9 -17 -7 -31 1 -14 -1 -25 -4 -25 -4 0 -7 -8 -8
-17 -2 -53 -8 -83 -16 -83 -4 0 -6 -4 -3 -9 3 -5 0 -24 -8 -42 -8 -20 -10 -43
-6 -54 4 -11 6 -25 3 -30 -2 -6 11 -19 27 -29 34 -19 34 -24 4 -29 -27 -4 -82
-38 -89 -56 -3 -8 6 -26 20 -41 14 -14 25 -31 25 -38 0 -33 114 -57 146 -31 8
6 14 8 14 4 0 -5 8 1 18 13 50 59 48 56 43 91 -1 10 -61 21 -61 10 0 -3 -11
-9 -25 -11 -22 -5 -24 -2 -19 21 3 14 7 36 10 49 2 13 8 20 13 17 11 -6 18 12
17 45 -1 19 -7 26 -27 28 -14 2 -31 -4 -39 -12 -34 -43 -37 5 -6 129 8 33 18
85 22 115 8 68 8 271 0 324 -9 53 -54 133 -91 161 -34 26 -111 66 -122 64 -5
-1 -10 0 -13 1 -14 5 -68 5 -95 0z m291 -939 c-3 -5 -15 -7 -26 -4 -28 7 -25
13 6 13 14 0 23 -4 20 -9z m64 -58 c0 -9 -51 -22 -65 -17 -27 11 -16 20 25 20
22 0 40 -1 40 -3z"/>
<path d="M446 955 c-12 -12 -13 -21 -6 -35 13 -24 13 -23 -9 -49 -11 -13 -17
-29 -14 -37 5 -15 25 -19 37 -7 4 4 18 9 33 11 l26 3 -22 -37 c-38 -65 0 -92
42 -30 25 38 44 36 50 -4 5 -33 41 -34 45 -2 2 12 8 22 13 22 5 0 12 0 17 0 4
0 7 -5 7 -10 0 -12 24 -30 41 -30 7 0 10 13 9 30 -1 17 1 30 6 30 4 0 15 7 24
16 26 26 2 45 -38 32 -18 -6 -36 -14 -42 -18 -14 -9 -65 -3 -95 12 -33 17 -52
36 -82 81 -24 35 -27 37 -42 22z"/>
</g>
</svg>
